# xmcd
#
# Track frame offsets: 
#        150
#        46867
#        101315
#        135585
#        191745
#        205447
#        215757
#        230147
#        248670
#        258000
#
# Disc length: 3879 seconds
#
# Revision: 0
# Processed by: cddbd v1.5.2PL0 Copyright (c) Steve Scherf et al.
# Submitted via: ExactAudioCopy v0.99pb1
#
DISCID=8d0f250a
DTITLE=Organist Johannes Lenius - Die Walcker - Orgel in der Wiener Vo
DTITLE=tivkirche
DYEAR=1996
DGENRE=Classical
TTITLE0=Track01 J. S. Bach, Toccata und Fuge in d-moll BWV 656
TTITLE1=Track02 F. Mendelssohn - Bartholdy, Sonate II Op. 65
TTITLE2=Track03 F. Liszt, Ave Maria
TTITLE3=Track04 C. Franck, Prelude, Fugue, Variation Op. 18
TTITLE4=Track05 J. Brahms, Herzliebster Jesu, Choralvorspiele aus Op. 
TTITLE4=122
TTITLE5=Track06 J. Brahms, O wie selig seid ihr doch, Choralvorspiele 
TTITLE5=aus Op. 122
TTITLE6=Track07 J. Brahms, O Welt, ich muﬂ Dich lassen, Choralvorspiel
TTITLE6=e aus Op. 122
TTITLE7=Track08 J. Brahms, Herzlich tut mich verlangen, Choralvorspiel
TTITLE7=e aus Op. 122
TTITLE8=Track09 A. Bruckner, Pr‰ludium C-Dur "Perger Pr‰ludium"
TTITLE9=Track10 A. Bruckner, Vorspiel und Fuge c-moll
EXTD=
EXTT0=
EXTT1=
EXTT2=
EXTT3=
EXTT4=
EXTT5=
EXTT6=
EXTT7=
EXTT8=
EXTT9=
PLAYORDER=
